<svg xmlns="http://www.w3.org/2000/svg" width="10.376" height="10.376" viewBox="0 0 10.376 10.376">
  <g id="그룹_545" data-name="그룹 545" transform="translate(-1202.67 -591.17)">
    <path id="선_70" data-name="선 70" d="M0,9.376a1,1,0,0,1-1-1V0A1,1,0,0,1,0-1,1,1,0,0,1,1,0V8.376A1,1,0,0,1,0,9.376Z" transform="translate(1207.858 592.17)" fill="#444"/>
    <path id="선_71" data-name="선 71" d="M0,9.376a1,1,0,0,1-1-1V0A1,1,0,0,1,0-1,1,1,0,0,1,1,0V8.376A1,1,0,0,1,0,9.376Z" transform="translate(1212.046 596.358) rotate(90)" fill="#444"/>
  </g>
</svg>
