<svg xmlns="http://www.w3.org/2000/svg" width="14.602" height="13.559" viewBox="0 0 14.602 13.559">
  <g id="그룹_609" data-name="그룹 609" transform="translate(-1726.032 -1371.394)">
    <path id="패스_97" data-name="패스 97" d="M7.3,0C3.269,0,0,2.612,0,5.834A5.7,5.7,0,0,0,3.464,10.8c-.153.576-.553,2.088-.633,2.411-.1.4.146.4.306.288.126-.084,2-1.373,2.81-1.929a9.154,9.154,0,0,0,1.355.1c4.032,0,7.3-2.612,7.3-5.834S11.334,0,7.3,0" transform="translate(1726.032 1371.394)" fill="#555"/>
    <g id="그룹_608" data-name="그룹 608" transform="translate(1727.897 1375.458)">
      <path id="패스_98" data-name="패스 98" d="M51.8,107.656H49.665a.367.367,0,0,0,0,.734h.694v2.585a.362.362,0,0,0,.1.253.352.352,0,0,0,.25.1h.078a.352.352,0,0,0,.249-.1.362.362,0,0,0,.1-.254V108.39H51.8a.367.367,0,0,0,0-.734" transform="translate(-49.302 -107.604)" fill="#fff"/>
      <path id="패스_99" data-name="패스 99" d="M205.717,109.342h-.993V106.7a.394.394,0,1,0-.788,0v2.846a.39.39,0,0,0,.006.064.341.341,0,0,0-.006.063.331.331,0,0,0,.33.334h1.451a.333.333,0,0,0,0-.666" transform="translate(-198.087 -106.303)" fill="#fff"/>
      <path id="패스_100" data-name="패스 100" d="M268.175,109.463l-1.106-1.469,1-1.011a.353.353,0,0,0,0-.5.345.345,0,0,0-.491,0l-1.238,1.251V106.7a.394.394,0,1,0-.788,0v2.933a.394.394,0,1,0,.788,0v-.905l.225-.227,1.047,1.388a.349.349,0,0,0,.493.071.359.359,0,0,0,.07-.5" transform="translate(-257.373 -106.303)" fill="#fff"/>
      <path id="패스_101" data-name="패스 101" d="M115.5,109.558l-1.064-2.942,0,0a.523.523,0,0,0-.5-.31.508.508,0,0,0-.517.37.486.486,0,0,0-.02.048l-1.046,2.837a.358.358,0,0,0,.216.455.352.352,0,0,0,.45-.218l.181-.522h1.456l.181.522a.352.352,0,0,0,.45.218.358.358,0,0,0,.216-.455m-2.072-.953.489-1.411.016,0,.489,1.41Z" transform="translate(-109.942 -106.303)" fill="#fff"/>
    </g>
  </g>
</svg>
