<?xml version="1.0" encoding="utf-8"?>
<!-- Generator: Adobe Illustrator 27.6.1, SVG Export Plug-In . SVG Version: 6.00 Build 0)  -->
<svg version="1.1" id="레이어_1" xmlns="http://www.w3.org/2000/svg" xmlns:xlink="http://www.w3.org/1999/xlink" x="0px"
	 y="0px" viewBox="0 0 123 41" style="enable-background:new 0 0 123 41;" xml:space="preserve">
<style type="text/css">
	.st0{fill:#3E4E57;}
	.st1{fill:#8DC33E;}
	.st2{fill:#009CE1;}
</style>
<g>
	<g>
		<g>
			<path class="st0" d="M36.5,16v1.3c0,1.6,0.6,3.2,2,3.9l-0.7,1c-0.9-0.5-1.5-1.4-1.8-2.4c-0.4,1.1-1,2.1-2,2.6l-0.7-1
				c1.4-0.7,2.1-2.4,2.1-4V16H36.5z M38.8,15.3H40v3.4h1.2v1H40v4.4h-1.2V15.3z"/>
			<path class="st0" d="M41.7,16h3.8v1h-2.6v2.3c1.5,0,2.4-0.1,3.3-0.3l0.1,1c-1,0.2-2,0.3-3.9,0.3h-0.7V16z M42.6,21.1h1.2v2h4.5v1
				h-5.7V21.1z M48,15.3v2.4h1.1v1H48v3h-1.2v-6.4H48z"/>
			<path class="st0" d="M50.9,15.8v1.1h1.7v-1.1h1.1v1.6h1.5v-2h1.2v4.8h-1.2v-1.8h-1.5v1.6h-4v-4.1H50.9z M50.9,20.6H52v0.8h3.3
				v-0.8h1.2v3.5h-5.5V20.6z M52.6,18.9v-1.1h-1.7v1.1H52.6z M55.3,23.1v-0.8H52v0.8H55.3z"/>
			<path class="st0" d="M59.8,15.9c1.3,0,2.3,0.9,2.3,2.2c0,1.3-1,2.2-2.3,2.2c-1.3,0-2.3-0.9-2.3-2.2
				C57.5,16.8,58.5,15.9,59.8,15.9z M59.8,19.3c0.6,0,1.1-0.5,1.1-1.2c0-0.7-0.5-1.2-1.1-1.2c-0.6,0-1.1,0.4-1.1,1.2
				C58.7,18.9,59.2,19.3,59.8,19.3z M58.8,21.1H60v2h4.6v1h-5.8V21.1z M64.4,15.3v6.4h-1.2v-6.4H64.4z"/>
			<path class="st0" d="M70.4,16.8h-2.7v-1h4c0,2.3-1.4,3.9-3.9,4.6l-0.5-1C69.2,19,70.2,18,70.4,16.8z M68.5,20.6H74v3.5h-5.4V20.6
				z M72.8,23.1v-1.5h-3.1v1.5H72.8z M74,15.3v1.9h1.1v1H74v2h-1.2v-4.9H74z"/>
			<path class="st0" d="M79.3,16.5h1.9v-1.1h1.2v5h-1.2v-0.9h-1.9c-0.4,0.4-1,0.7-1.6,0.7c-1.2,0-2.2-0.9-2.2-2.2
				c0-1.2,1-2.1,2.2-2.1C78.4,15.8,78.9,16.1,79.3,16.5z M77.7,19.1c0.6,0,1.1-0.4,1.1-1.1c0-0.7-0.5-1.1-1.1-1.1
				c-0.6,0-1.1,0.4-1.1,1.1C76.6,18.7,77.1,19.1,77.7,19.1z M76.8,20.8h5.6v3.3h-5.6V20.8z M81.3,23.1v-1.4H78v1.4H81.3z M81.2,18.4
				v-1h-1.4c0,0.2,0.1,0.3,0.1,0.5c0,0.2,0,0.3-0.1,0.5H81.2z"/>
			<path class="st0" d="M84.9,15.9v1.2h1.7v-1.2h1.1v0.8h1.5v-1.3h1.2v5.3h-1.2v-1.2h-1.5v0.7h-4v-4.2H84.9z M87.6,20.8
				c1.8,0,2.9,0.6,2.9,1.7c0,1.1-1.1,1.7-2.9,1.7c-1.8,0-2.9-0.6-2.9-1.7C84.7,21.4,85.8,20.8,87.6,20.8z M86.6,19.2V18h-1.7v1.1
				H86.6z M87.6,23.3c1.1,0,1.7-0.3,1.7-0.8c0-0.5-0.6-0.8-1.7-0.8c-1.1,0-1.7,0.3-1.7,0.8C85.9,23,86.5,23.3,87.6,23.3z M89.2,18.5
				v-0.8h-1.5v0.8H89.2z"/>
			<path class="st0" d="M92.8,19.8V18H94v1.7c0.8,0,1.7-0.1,2.5-0.2l0.1,0.9c-1.7,0.3-3.7,0.4-5.1,0.4l-0.1-1
				C91.7,19.8,92.3,19.8,92.8,19.8z M96.1,16v0.5c0,0.6,0,1.5-0.2,2.6L94.7,19c0.2-0.8,0.2-1.5,0.2-2h-3.2v-1H96.1z M92.5,21.4h1.2
				V23h4.7v1h-5.8V21.4z M96.9,15.3h1.2v2.7h1v1h-1V22h-1.2V15.3z"/>
			<path class="st0" d="M99.8,16.1h4v3.4H101v1.6c1.3,0,2.4-0.1,3.6-0.3l0.1,1c-1.4,0.3-2.6,0.3-4.1,0.3h-0.7v-3.6h2.8v-1.4h-2.8
				V16.1z M106.4,15.3v8.9h-1.2v-8.9H106.4z"/>
			<path class="st0" d="M109.5,15.7v0.9h3.4v-0.9h1.2v3.6h-2.3V20h3.2v1h-7.6v-1h3.2v-0.8h-2.2v-3.6H109.5z M108.3,21.5h1.2v1.5h4.7
				v1h-5.8V21.5z M112.9,18.3v-0.8h-3.4v0.8H112.9z"/>
			<path class="st0" d="M123,20.5v1h-3.3v2.8h-1.2v-2.8h-3.2v-1H123z M116.3,15.7h1.1v1h3.5v-1h1.1v3.9h-5.8V15.7z M121,18.6v-0.9
				h-3.5v0.9H121z"/>
		</g>
		<g>
			<g>
				<path class="st0" d="M33.9,26.5V31h-0.7v-4.5H33.9z"/>
				<path class="st0" d="M36.1,28.4c-0.4,0-0.7,0.3-0.7,0.9V31h-0.7v-3.2h0.7v0.5c0.2-0.3,0.5-0.5,0.8-0.5c0.6,0,1.3,0.3,1.3,1.4V31
					h-0.7v-1.7C36.8,28.7,36.5,28.4,36.1,28.4z"/>
				<path class="st0" d="M38.5,31v-2.5h-0.5v-0.6h0.5v-0.3c0-0.6,0.4-1.1,0.9-1.1c0.3,0,0.6,0.1,0.8,0.2l-0.3,0.5
					c-0.1-0.1-0.3-0.1-0.4-0.1c-0.2,0-0.3,0.2-0.3,0.5v0.3H40v0.6h-0.9V31H38.5z"/>
				<path class="st0" d="M41.7,27.8c0.9,0,1.2,0.8,1.3,0.9c0.2,0.4,0.1,0.9,0.1,1h-2.2c0.1,0.4,0.4,0.7,0.8,0.7
					c0.5,0,0.7-0.3,0.7-0.4l0.6,0.2c0,0-0.3,0.7-1.3,0.7c-0.9,0-1.5-0.7-1.5-1.6S40.9,27.8,41.7,27.8z M41.7,28.4
					c-0.4,0-0.8,0.3-0.8,0.7h1.6C42.5,28.8,42.2,28.4,41.7,28.4z"/>
				<path class="st0" d="M45.6,30l0.5,0.5C45.8,30.8,45.4,31,45,31c-0.9,0-1.5-0.7-1.5-1.6c0-0.9,0.6-1.6,1.5-1.6
					c0.4,0,0.8,0.2,1.1,0.5l-0.5,0.5c-0.2-0.2-0.4-0.3-0.6-0.3c-0.5,0-0.8,0.4-0.8,0.9c0,0.6,0.3,0.9,0.8,0.9
					C45.2,30.3,45.5,30.2,45.6,30z"/>
				<path class="st0" d="M47.8,31c-0.5,0-0.9-0.4-0.9-1v-1.5h-0.5v-0.6h0.5V27h0.7v0.9h0.8v0.6h-0.8V30c0,0.2,0.1,0.4,0.3,0.4
					c0.1,0,0.3-0.1,0.3-0.1l0.2,0.6C48.2,30.9,48.1,31,47.8,31z"/>
				<path class="st0" d="M49.2,26.4c0.2,0,0.4,0.2,0.4,0.4c0,0.2-0.2,0.4-0.4,0.4c-0.2,0-0.4-0.2-0.4-0.4
					C48.8,26.6,49,26.4,49.2,26.4z M49.6,27.8V31h-0.7v-3.2H49.6z"/>
				<path class="st0" d="M51.7,27.8c0.9,0,1.5,0.7,1.5,1.6S52.5,31,51.7,31s-1.5-0.7-1.5-1.6S50.8,27.8,51.7,27.8z M52.4,29.4
					c0-0.6-0.3-1-0.8-1c-0.5,0-0.8,0.4-0.8,1c0,0.6,0.3,1,0.8,1C52.1,30.4,52.4,30,52.4,29.4z"/>
				<path class="st0" d="M55.1,30.4c0.4,0,0.7-0.4,0.7-0.9v-1.7h0.7V31h-0.7v-0.5C55.6,30.8,55.3,31,55,31c-0.8,0-1.3-0.6-1.3-1.4
					v-1.8h0.7v1.8C54.4,30.1,54.7,30.4,55.1,30.4z"/>
				<path class="st0" d="M58.2,30.5c0.3,0,0.5-0.2,0.5-0.4c0-0.4-1.6-0.3-1.6-1.4c0-0.6,0.5-0.9,1.1-0.9c0.3,0,0.8,0.2,1,0.5
					l-0.5,0.4c-0.1-0.2-0.4-0.3-0.5-0.3c-0.3,0-0.4,0.1-0.4,0.3c0,0.5,1.6,0.3,1.6,1.4c0,0.6-0.5,1-1.2,1c-0.4,0-0.8-0.2-1.1-0.6
					l0.5-0.4C57.7,30.3,58,30.4,58.2,30.5z"/>
				<path class="st0" d="M61.4,26.5h1.4c1.2,0,2.1,0.9,2.1,2.2S64.1,31,62.8,31h-1.4V26.5z M64.3,28.8c0-1-0.6-1.6-1.4-1.6l-0.7,0
					v3.2l0.7,0C63.7,30.4,64.3,29.7,64.3,28.8z"/>
				<path class="st0" d="M65.9,26.4c0.2,0,0.4,0.2,0.4,0.4c0,0.2-0.2,0.4-0.4,0.4c-0.2,0-0.4-0.2-0.4-0.4
					C65.5,26.6,65.7,26.4,65.9,26.4z M66.2,27.8V31h-0.7v-3.2H66.2z"/>
				<path class="st0" d="M68,30.5c0.3,0,0.5-0.2,0.5-0.4c0-0.4-1.6-0.3-1.6-1.4c0-0.6,0.5-0.9,1.1-0.9c0.3,0,0.8,0.2,1,0.5l-0.5,0.4
					c-0.1-0.2-0.4-0.3-0.5-0.3c-0.3,0-0.4,0.1-0.4,0.3c0,0.5,1.6,0.3,1.6,1.4c0,0.6-0.5,1-1.2,1c-0.4,0-0.8-0.2-1.1-0.6l0.5-0.4
					C67.5,30.3,67.8,30.4,68,30.5z"/>
				<path class="st0" d="M71.1,27.8c0.9,0,1.2,0.8,1.3,0.9c0.2,0.4,0.1,0.9,0.1,1h-2.2c0.1,0.4,0.4,0.7,0.8,0.7
					c0.5,0,0.7-0.3,0.7-0.4l0.6,0.2c0,0-0.3,0.7-1.3,0.7c-0.9,0-1.5-0.7-1.5-1.6S70.3,27.8,71.1,27.8z M71.1,28.4
					c-0.4,0-0.8,0.3-0.8,0.7h1.6C71.9,28.8,71.6,28.4,71.1,28.4z"/>
				<path class="st0" d="M74.4,27.8c0.3,0,0.7,0.2,0.9,0.5v-0.5H76V31h-0.7v-0.5c-0.2,0.3-0.6,0.5-0.9,0.5c-0.8,0-1.4-0.7-1.4-1.6
					C73,28.5,73.6,27.8,74.4,27.8z M75.3,29.4c0-0.6-0.4-1-0.8-1c-0.5,0-0.8,0.4-0.8,1c0,0.6,0.3,1,0.8,1
					C74.9,30.4,75.3,30,75.3,29.4z"/>
				<path class="st0" d="M77.7,30.5c0.3,0,0.5-0.2,0.5-0.4c0-0.4-1.6-0.3-1.6-1.4c0-0.6,0.5-0.9,1.1-0.9c0.3,0,0.8,0.2,1,0.5
					l-0.5,0.4c-0.1-0.2-0.4-0.3-0.5-0.3c-0.3,0-0.4,0.1-0.4,0.3c0,0.5,1.6,0.3,1.6,1.4c0,0.6-0.5,1-1.2,1c-0.4,0-0.8-0.2-1.1-0.6
					l0.5-0.4C77.2,30.3,77.5,30.4,77.7,30.5z"/>
				<path class="st0" d="M80.9,27.8c0.9,0,1.2,0.8,1.3,0.9c0.2,0.4,0.1,0.9,0.1,1H80c0.1,0.4,0.4,0.7,0.8,0.7c0.5,0,0.7-0.3,0.7-0.4
					l0.6,0.2c0,0-0.3,0.7-1.3,0.7c-0.9,0-1.5-0.7-1.5-1.6S80,27.8,80.9,27.8z M80.9,28.4c-0.4,0-0.8,0.3-0.8,0.7h1.6
					C81.6,28.8,81.4,28.4,80.9,28.4z"/>
				<path class="st0" d="M84.2,28.8c0-1.3,0.9-2.3,2.1-2.3c0.6,0,1.1,0.3,1.5,0.7l-0.4,0.5c-0.2-0.3-0.6-0.5-1-0.5
					c-0.8,0-1.4,0.7-1.4,1.7s0.6,1.7,1.4,1.7c0.5,0,0.8-0.2,1-0.5l0.5,0.5c-0.4,0.4-0.9,0.7-1.5,0.7C85.1,31,84.2,30.1,84.2,28.8z"
					/>
				<path class="st0" d="M89.6,27.8c0.9,0,1.5,0.7,1.5,1.6S90.5,31,89.6,31s-1.5-0.7-1.5-1.6S88.8,27.8,89.6,27.8z M90.4,29.4
					c0-0.6-0.3-1-0.8-1c-0.5,0-0.8,0.4-0.8,1c0,0.6,0.3,1,0.8,1C90.1,30.4,90.4,30,90.4,29.4z"/>
				<path class="st0" d="M93,28.4c-0.4,0-0.7,0.3-0.7,0.9V31h-0.7v-3.2h0.7v0.5c0.2-0.3,0.5-0.5,0.8-0.5c0.6,0,1.3,0.3,1.3,1.4V31
					h-0.7v-1.7C93.7,28.7,93.4,28.4,93,28.4z"/>
				<path class="st0" d="M96.2,31c-0.5,0-0.9-0.4-0.9-1v-1.5h-0.5v-0.6h0.5V27H96v0.9h0.8v0.6H96V30c0,0.2,0.1,0.4,0.3,0.4
					c0.1,0,0.3-0.1,0.3-0.1l0.2,0.6C96.6,30.9,96.5,31,96.2,31z"/>
				<path class="st0" d="M98.9,27.8v0.6c-0.6,0-0.9,0.5-0.9,1V31h-0.7v-3.2H98v0.6C98.2,28,98.6,27.8,98.9,27.8z"/>
				<path class="st0" d="M100.6,27.8c0.9,0,1.5,0.7,1.5,1.6s-0.6,1.6-1.5,1.6c-0.9,0-1.5-0.7-1.5-1.6S99.7,27.8,100.6,27.8z
					 M101.4,29.4c0-0.6-0.3-1-0.8-1c-0.5,0-0.8,0.4-0.8,1c0,0.6,0.3,1,0.8,1C101.1,30.4,101.4,30,101.4,29.4z"/>
				<path class="st0" d="M103.2,26.5V31h-0.7v-4.5H103.2z"/>
				<path class="st0" d="M105.2,28.8c0-1.3,0.9-2.3,2.1-2.3c0.6,0,1.1,0.3,1.5,0.7l-0.4,0.5c-0.2-0.3-0.6-0.5-1-0.5
					c-0.8,0-1.4,0.7-1.4,1.7s0.6,1.7,1.4,1.7c0.5,0,0.8-0.2,1-0.5l0.5,0.5c-0.4,0.4-0.9,0.7-1.5,0.7C106,31,105.2,30.1,105.2,28.8z"
					/>
				<path class="st0" d="M110.6,27.8c0.9,0,1.2,0.8,1.3,0.9c0.2,0.4,0.1,0.9,0.1,1h-2.2c0.1,0.4,0.4,0.7,0.8,0.7
					c0.5,0,0.7-0.3,0.7-0.4l0.6,0.2c0,0-0.3,0.7-1.3,0.7c-0.9,0-1.5-0.7-1.5-1.6S109.7,27.8,110.6,27.8z M110.6,28.4
					c-0.4,0-0.8,0.3-0.8,0.7h1.6C111.3,28.8,111.1,28.4,110.6,28.4z"/>
				<path class="st0" d="M113.9,28.4c-0.4,0-0.7,0.3-0.7,0.9V31h-0.7v-3.2h0.7v0.5c0.2-0.3,0.5-0.5,0.8-0.5c0.6,0,1.3,0.3,1.3,1.4
					V31h-0.7v-1.7C114.6,28.7,114.4,28.4,113.9,28.4z"/>
				<path class="st0" d="M117.1,31c-0.5,0-0.9-0.4-0.9-1v-1.5h-0.5v-0.6h0.5V27h0.7v0.9h0.8v0.6h-0.8V30c0,0.2,0.1,0.4,0.3,0.4
					c0.1,0,0.3-0.1,0.3-0.1l0.2,0.6C117.6,30.9,117.5,31,117.1,31z"/>
				<path class="st0" d="M119.5,27.8c0.9,0,1.2,0.8,1.3,0.9c0.2,0.4,0.1,0.9,0.1,1h-2.2c0.1,0.4,0.4,0.7,0.8,0.7
					c0.5,0,0.7-0.3,0.7-0.4l0.6,0.2c0,0-0.3,0.7-1.3,0.7c-0.9,0-1.5-0.7-1.5-1.6S118.7,27.8,119.5,27.8z M119.5,28.4
					c-0.4,0-0.8,0.3-0.8,0.7h1.6C120.2,28.8,120,28.4,119.5,28.4z"/>
				<path class="st0" d="M123,27.8v0.6c-0.6,0-0.9,0.5-0.9,1V31h-0.7v-3.2h0.7v0.6C122.3,28,122.6,27.8,123,27.8z"/>
			</g>
		</g>
	</g>
	<g>
		<path class="st1" d="M5.4,16.3c1.4,0,2.5-1.1,2.5-2.5c0-1.4-1.1-2.5-2.5-2.5c-1.4,0-2.5,1.1-2.5,2.5C2.9,15.2,4,16.3,5.4,16.3z"/>
		<path class="st1" d="M21.8,37.4c-0.1,2-1.8,3.6-3.9,3.6h-14C1.7,41,0,39.3,0,37.1v-14c0-2.1,1.7-3.9,3.9-3.9h7v14.3
			c0,0.3,0,0.5,0.1,0.8c0.3,1.5,1.5,2.7,3,3c0.3,0.1,0.5,0.1,0.8,0.1H21.8z"/>
		<circle class="st2" cx="18.9" cy="2.5" r="2.5"/>
		<path class="st2" d="M23.1,7.8h-8.3c-2.1,0-3.9,1.7-3.9,3.9v4.4h3.9c2.1,0,3.9,1.7,3.9,3.9v17.4h4.5c2.1,0,3.9-1.7,3.9-3.9V11.7
			C26.9,9.6,25.2,7.8,23.1,7.8z M18.8,13l-1.4,1.4c-0.3,0.3-0.7,0.3-1,0L15.1,13c-0.3-0.3-0.3-0.7,0-1l1.4-1.4c0.3-0.3,0.7-0.3,1,0
			l1.4,1.4C19.1,12.3,19.1,12.7,18.8,13z"/>
	</g>
</g>
</svg>
